<?xml version="1.0" encoding="iso-8859-1"?>
<!-- Generator: Adobe Illustrator 19.0.0, SVG Export Plug-In . SVG Version: 6.00 Build 0)  -->
<svg version="1.1" id="Capa_1" xmlns="http://www.w3.org/2000/svg" x="0px" y="0px"
     viewBox="0 0 512 512" style="enable-background:new 0 0 512 512;" xml:space="preserve">
<rect x="97.52" y="316.949" style="fill:#4B3F4E;" width="16.254" height="65.02"/>
    <rect x="219.43" y="219.429" style="fill:#867E88;" width="81.27" height="65.02"/>
    <rect x="300.7" y="284.439" style="fill:#4B3F4E;" width="32.508" height="40.635"/>
    <path style="fill:#6F6571;" d="M341.333,381.967H268.19c-8.977,0-16.254-7.277-16.254-16.254v-32.508
	c0-8.977,7.277-16.254,16.254-16.254h73.143c8.977,0,16.254,7.277,16.254,16.254v32.508
	C357.587,374.69,350.31,381.967,341.333,381.967z"/>
    <path style="fill:#AEA8AF;" d="M227.556,219.428v89.397c0,4.488-3.639,8.127-8.127,8.127h-97.524v-97.524H227.556z"/>
    <rect x="130.03" y="219.429" style="fill:#9C969E;" width="97.52" height="24.381"/>
    <path style="fill:#F2A069;" d="M121.905,325.078H89.397c-4.488,0-8.127-3.639-8.127-8.127v-97.524h48.762v97.524
	C130.032,321.44,126.393,325.078,121.905,325.078z"/>
    <path style="fill:#5D5360;" d="M81.27,284.443l-20.196-5.049c-7.236-1.809-12.312-8.31-12.312-15.769v-44.198H81.27V284.443z"/>
    <rect x="48.762" y="219.429" style="fill:#4B3F4E;" width="32.508" height="24.381"/>
    <rect x="81.27" y="219.429" style="fill:#E68C5A;" width="48.762" height="24.381"/>
    <g>
	<rect x="8.127" y="113.779" style="fill:#4B3F4E;" width="422.6" height="16.254"/>
        <rect x="8.127" y="195.049" style="fill:#4B3F4E;" width="422.6" height="16.254"/>
</g>
    <g>
	<path style="fill:#5D5360;" d="M398.222,48.761H40.635C18.23,48.761,0,66.991,0,89.396v260.063
		c0,22.405,18.23,40.635,40.635,40.635h24.381v48.762H81.27v-48.762h316.952c22.405,0,40.635-18.23,40.635-40.635V89.396
		C438.857,66.991,420.627,48.761,398.222,48.761z M422.603,349.459c0,13.444-10.937,24.381-24.381,24.381H40.635
		c-13.444,0-24.381-10.937-24.381-24.381V89.396c0-13.444,10.937-24.381,24.381-24.381h357.587
		c13.444,0,24.381,10.937,24.381,24.381L422.603,349.459L422.603,349.459z"/>
        <path style="fill:#5D5360;" d="M390.095,292.57h-80.127c-7.976,0-15.643-2.921-21.603-8.214l-59.278-52.698
		c-2.976-2.643-6.817-4.103-10.802-4.103H48.762c-8.96,0-16.254-7.294-16.254-16.254v-89.397c0-4.492,3.635-8.127,8.127-8.127
		h357.587c4.492,0,8.127,3.635,8.127,8.127v154.413C406.349,285.277,399.056,292.57,390.095,292.57z"/>
</g>
    <g>
	<path style="fill:#F2A069;" d="M48.762,146.285v48.762c0,8.977,7.277,16.254,16.254,16.254h153.27
		c7.964,0,15.651,2.923,21.603,8.214l59.278,52.698c2.973,2.643,6.813,4.103,10.791,4.103h63.884
		c8.977,0,16.254-7.277,16.254-16.254V146.285c0-8.977-7.277-16.254-16.254-16.254H65.016
		C56.039,130.031,48.762,137.308,48.762,146.285z"/>
        <path style="fill:#F2A069;" d="M398.222,65.015H40.635c-13.465,0-24.381,10.916-24.381,24.381v24.381h406.349V89.396
		C422.603,75.931,411.687,65.015,398.222,65.015z"/>
</g>
    <path style="fill:#FFBE87;" d="M17.747,81.269H421.11c-3.359-9.448-12.288-16.254-22.888-16.254H40.635
	C30.035,65.015,21.106,71.821,17.747,81.269z"/>
    <circle style="fill:#4B3F4E;" cx="195.05" cy="170.669" r="16.254"/>
    <circle style="fill:#EDEBED;" cx="325.08" cy="195.049" r="40.635"/>
    <circle style="fill:#FFFFFF;" cx="325.08" cy="195.049" r="24.381"/>
    <g>
	<circle style="fill:#4B3F4E;" cx="130.03" cy="170.669" r="16.254"/>
        <path style="fill:#4B3F4E;" d="M81.27,463.237H65.016c-4.488,0-8.127-3.639-8.127-8.127v-8.127c0-8.977,7.277-16.254,16.254-16.254
		l0,0c8.977,0,16.254,7.277,16.254,16.254v8.127C89.397,459.599,85.758,463.237,81.27,463.237z"/>
</g>
    <path style="fill:#EDEBED;" d="M81.27,162.539h-8.127c-4.492,0-8.127-3.635-8.127-8.127s3.635-8.127,8.127-8.127h8.127
	c4.492,0,8.127,3.635,8.127,8.127C89.397,158.904,85.762,162.539,81.27,162.539z"/>
    <g>
	<path style="fill:#5D5360;" d="M81.27,195.047h-8.127c-4.492,0-8.127-3.635-8.127-8.127s3.635-8.127,8.127-8.127h8.127
		c4.492,0,8.127,3.635,8.127,8.127S85.762,195.047,81.27,195.047z"/>
        <path style="fill:#5D5360;" d="M325.079,203.174c-2.079,0-4.159-0.794-5.746-2.381c-3.175-3.175-3.175-8.317,0-11.492
		l16.254-16.254c3.175-3.175,8.317-3.175,11.492,0c3.175,3.175,3.175,8.317,0,11.492l-16.254,16.254
		C329.238,202.38,327.159,203.174,325.079,203.174z"/>
        <circle style="fill:#5D5360;" cx="430.73" cy="381.969" r="81.27"/>
</g>
    <path style="fill:#4B3F4E;" d="M446.984,446.983c-44.884,0-81.27-36.386-81.27-81.27c0-18.293,6.117-35.116,16.316-48.698
	c-19.742,14.827-32.57,38.361-32.57,64.952c0,44.884,36.386,81.27,81.27,81.27c26.591,0,50.125-12.829,64.952-32.571
	C482.1,440.866,465.277,446.983,446.984,446.983z"/>
    <circle style="fill:#C9C6CA;" cx="430.73" cy="381.969" r="40.635"/>
    <circle style="fill:#B7B2B8;" cx="430.73" cy="381.969" r="24.381"/>
    <circle style="fill:#EDEBED;" cx="430.73" cy="381.969" r="8.127"/>
    <circle style="fill:#4B3F4E;" cx="325.08" cy="195.049" r="8.127"/>
    <path style="fill:#C9C6CA;" d="M130.032,316.951h56.889c4.488,0,8.127-3.639,8.127-8.127v-24.381c0-4.488-3.639-8.127-8.127-8.127
	h-56.889c-4.488,0-8.127,3.639-8.127,8.127v24.381C121.905,313.313,125.543,316.951,130.032,316.951z"/>
    <g>
</g>
    <g>
</g>
    <g>
</g>
    <g>
</g>
    <g>
</g>
    <g>
</g>
    <g>
</g>
    <g>
</g>
    <g>
</g>
    <g>
</g>
    <g>
</g>
    <g>
</g>
    <g>
</g>
    <g>
</g>
    <g>
</g>
</svg>
